<svg width="20" height="22" viewBox="0 0 20 22" fill="none" xmlns="http://www.w3.org/2000/svg">
<path d="M1.66699 9.48612C1.66699 8.53257 2.12031 7.63581 2.88814 7.0704L10.0003 1.83325L17.1125 7.0704C17.8803 7.63581 18.3337 8.53257 18.3337 9.48612V17.6666C18.3337 19.0473 17.2144 20.1666 15.8337 20.1666H13.5003C12.948 20.1666 12.5003 19.7189 12.5003 19.1666V14.4166C12.5003 14.1404 12.2765 13.9166 12.0003 13.9166H8.00033C7.72418 13.9166 7.50033 14.1404 7.50033 14.4166V19.1666C7.50033 19.7189 7.05261 20.1666 6.50033 20.1666H4.16699C2.78628 20.1666 1.66699 19.0473 1.66699 17.6666V9.48612Z" stroke="#14142B" stroke-width="2" stroke-linecap="round" stroke-linejoin="round"/>
</svg>
