<svg width="20" height="20" viewBox="0 0 20 20" fill="none" xmlns="http://www.w3.org/2000/svg">
<circle cx="10.0003" cy="10.0001" r="3.33333" stroke="#14142B" stroke-width="2"/>
<path d="M8.28476 2.02967C9.06135 0.733709 10.9393 0.73371 11.7159 2.02968L11.891 2.32189C12.3439 3.07768 13.238 3.44805 14.0927 3.23387L14.4232 3.15107C15.8887 2.78381 17.2166 4.11172 16.8493 5.57724L16.7665 5.90768C16.5524 6.76236 16.9227 7.65651 17.6785 8.10941L17.9707 8.28452C19.2667 9.0611 19.2667 10.9391 17.9707 11.7156L17.6785 11.8908C16.9227 12.3436 16.5524 13.2378 16.7665 14.0925L16.8493 14.4229C17.2166 15.8884 15.8887 17.2164 14.4232 16.8491L14.0927 16.7663C13.238 16.5521 12.3439 16.9225 11.891 17.6783L11.7159 17.9705C10.9393 19.2665 9.06135 19.2665 8.28476 17.9705L8.10966 17.6783C7.65676 16.9225 6.7626 16.5521 5.90793 16.7663L5.57748 16.8491C4.11197 17.2164 2.78405 15.8884 3.15131 14.4229L3.23412 14.0925C3.4483 13.2378 3.07793 12.3436 2.32213 11.8907L2.02992 11.7156C0.733953 10.9391 0.733954 9.0611 2.02992 8.28452L2.32213 8.10941C3.07793 7.65651 3.4483 6.76236 3.23412 5.90768L3.15131 5.57724C2.78405 4.11172 4.11197 2.78381 5.57748 3.15107L5.90793 3.23387C6.7626 3.44805 7.65676 3.07768 8.10966 2.32189L8.28476 2.02967Z" stroke="#14142B" stroke-width="2"/>
</svg>
